<?xml version="1.0" ?><!DOCTYPE svg  PUBLIC '-//W3C//DTD SVG 1.1//EN'  'http://www.w3.org/Graphics/SVG/1.1/DTD/svg11.dtd'><svg enable-background="new 0 0 24 24" height="24px" id="Layer_1" version="1.1" viewBox="0 0 24 24" width="24px" xml:space="preserve" xmlns="http://www.w3.org/2000/svg" xmlns:xlink="http://www.w3.org/1999/xlink"><g><path d="M12,23.5C5.659,23.5,0.5,18.341,0.5,12S5.659,0.5,12,0.5S23.5,5.659,23.5,12S18.341,23.5,12,23.5z M12,1.5   C6.21,1.5,1.5,6.21,1.5,12S6.21,22.5,12,22.5S22.5,17.79,22.5,12S17.79,1.5,12,1.5z"/><g><path d="M5.316,17.793c-0.067,0-0.135-0.014-0.199-0.042c-0.188-0.081-0.307-0.269-0.301-0.474L4.9,14.475    c0.002-0.063,0.016-0.125,0.042-0.184l3.425-7.896C8.42,6.273,8.518,6.177,8.642,6.129C8.765,6.08,8.903,6.083,9.025,6.135    l1.905,0.827c0.122,0.053,0.217,0.151,0.266,0.275c0.049,0.124,0.046,0.261-0.006,0.383l-3.426,7.896    c-0.025,0.059-0.061,0.111-0.106,0.155L5.67,17.646C5.573,17.743,5.445,17.793,5.316,17.793z M5.897,14.602l-0.043,1.453    l1.03-1.023l3.188-7.349L9.084,7.253L5.897,14.602z"/><rect height="1" transform="matrix(0.9171 0.3986 -0.3986 0.9171 6.025 -1.6141)" width="1.793" x="5.997" y="13.18"/><rect height="1" transform="matrix(0.9173 0.3981 -0.3981 0.9173 4.2886 -2.8272)" width="1.738" x="8.083" y="8.414"/></g><g><path d="M16.814,14.495c-0.125,0-0.248-0.047-0.342-0.136c-2.43-2.274-2.56-6.674-2.373-7.594c0.021-0.104,0.084-0.419,0.385-0.53    c0.256-0.094,0.486-0.074,1.072,0.576c1.06,1.174,2.986,4.125,2.7,6.887c-0.021,0.188-0.146,0.351-0.323,0.417l-0.944,0.349    C16.932,14.484,16.873,14.495,16.814,14.495z M15.042,7.749c0.028,1.363,0.392,4.049,1.899,5.666l0.342-0.126    C17.364,11.079,15.9,8.804,15.042,7.749z"/><path d="M18.572,17.798c-0.072,0-0.143-0.015-0.209-0.046c-0.788-0.363-1.852-1.686-2.076-2.292    c-0.141-0.378-0.124-0.787,0.044-1.151c0.168-0.367,0.469-0.645,0.847-0.783c0.762-0.278,1.655,0.135,1.936,0.891    c0.224,0.607,0.275,2.303-0.086,3.091c-0.055,0.121-0.156,0.214-0.281,0.261C18.689,17.788,18.631,17.798,18.572,17.798z     M17.7,14.432c-0.06,0-0.119,0.012-0.177,0.032c-0.125,0.046-0.228,0.14-0.283,0.263c-0.057,0.123-0.063,0.26-0.016,0.389    c0.108,0.292,0.586,0.917,1.036,1.342c0.066-0.616,0.022-1.4-0.086-1.693C18.102,14.564,17.911,14.432,17.7,14.432z"/><rect height="2.262" transform="matrix(0.3468 0.9379 -0.9379 0.3468 21.7341 -7.7013)" width="1" x="15.897" y="10.623"/></g><path d="M20.5,15H19c-0.275,0-0.5-0.225-0.5-0.5S18.725,14,19,14h1v-4h-3c-0.275,0-0.5-0.224-0.5-0.5S16.725,9,17,9h3.5   C20.775,9,21,9.224,21,9.5v5C21,14.775,20.775,15,20.5,15z"/><path d="M14.712,10H10c-0.276,0-0.5-0.224-0.5-0.5S9.724,9,10,9h4.712c0.276,0,0.5,0.224,0.5,0.5S14.989,10,14.712,10z"/><path d="M5,15H3.5C3.224,15,3,14.775,3,14.5v-5C3,9.224,3.224,9,3.5,9h4.064c0.276,0,0.5,0.224,0.5,0.5S7.84,10,7.564,10H4v4h1   c0.276,0,0.5,0.225,0.5,0.5S5.276,15,5,15z"/><path d="M16.794,15H8c-0.276,0-0.5-0.225-0.5-0.5S7.724,14,8,14h8.794c0.276,0,0.5,0.225,0.5,0.5S17.07,15,16.794,15z"/></g></svg>